<svg width="184" height="56" viewBox="0 0 184 56" fill="none" xmlns="http://www.w3.org/2000/svg">
<rect x="1" y="1" width="182" height="54" fill="black"/>
<path d="M17.5917 11.44C18.1251 11.44 18.7784 11.4667 19.5517 11.52C20.3517 11.5733 21.1651 11.6533 21.9917 11.76C22.8451 11.84 23.5784 11.9333 24.1917 12.04C24.8317 12.12 25.2717 12.2133 25.5117 12.32L25.0317 17.72H24.6317C24.6317 16.3333 24.1117 15.2267 23.0717 14.4C22.0584 13.5467 20.6984 13.12 18.9917 13.12C17.4451 13.12 16.1917 13.4933 15.2317 14.24C14.2984 14.9867 13.8051 15.8933 13.7517 16.96C13.7251 17.76 13.9784 18.4533 14.5117 19.04C15.0451 19.6267 15.7251 20.1733 16.5517 20.68L24.1917 25.64C25.4184 26.3333 26.3384 27.24 26.9517 28.36C27.5917 29.48 27.8717 30.7867 27.7917 32.28C27.6584 34.8933 26.6584 36.9333 24.7917 38.4C22.9251 39.84 20.3917 40.56 17.1917 40.56C16.0184 40.56 14.8717 40.4533 13.7517 40.24C12.6584 40.0533 11.6851 39.7867 10.8317 39.44C9.97839 39.0667 9.29839 38.6267 8.79172 38.12C8.57839 37.5333 8.48505 36.8267 8.51172 36C8.53839 35.1733 8.65839 34.3333 8.87172 33.48C9.11172 32.6267 9.40505 31.92 9.75172 31.36H10.1117C10.0051 32.72 10.2451 33.9867 10.8317 35.16C11.4451 36.3067 12.3251 37.2267 13.4717 37.92C14.6451 38.5867 16.0317 38.9067 17.6317 38.88C19.3917 38.8533 20.7517 38.4133 21.7117 37.56C22.6717 36.68 23.1517 35.6267 23.1517 34.4C23.1517 33.5733 22.8984 32.8267 22.3917 32.16C21.9117 31.4933 21.1117 30.8533 19.9917 30.24L12.9917 25.6C11.5784 24.8 10.5517 23.7733 9.91172 22.52C9.27172 21.2667 9.01839 19.9067 9.15172 18.44C9.28505 17.0533 9.69839 15.84 10.3917 14.8C11.0851 13.7333 12.0317 12.9067 13.2317 12.32C14.4584 11.7333 15.9117 11.44 17.5917 11.44ZM25.5517 11.84L25.4717 12.68H20.7517V11.84H25.5517ZM41.7717 14.92L53.6117 39.8H46.8517L39.4117 22.24L41.7717 14.92ZM34.2517 37.36C33.9584 38.08 33.9984 38.64 34.3717 39.04C34.7451 39.4133 35.1584 39.6 35.6117 39.6H35.9317V40H27.9317V39.6C27.9317 39.6 27.9851 39.6 28.0917 39.6C28.1984 39.6 28.2517 39.6 28.2517 39.6C28.7851 39.6 29.3451 39.44 29.9317 39.12C30.5184 38.7733 30.9984 38.1867 31.3717 37.36H34.2517ZM41.7717 14.92L41.8517 19.72L33.1717 39.88H30.2117L39.5717 19.76C39.6251 19.6 39.7451 19.32 39.9317 18.92C40.1184 18.4933 40.3184 18.0267 40.5317 17.52C40.7451 16.9867 40.9451 16.4933 41.1317 16.04C41.3184 15.56 41.4251 15.1867 41.4517 14.92H41.7717ZM45.2517 32.16V33.72H35.0517V32.16H45.2517ZM45.8517 37.36H52.4517C52.8517 38.1867 53.3451 38.7733 53.9317 39.12C54.5184 39.44 55.0784 39.6 55.6117 39.6C55.6117 39.6 55.6651 39.6 55.7717 39.6C55.8784 39.6 55.9317 39.6 55.9317 39.6V40H44.1717V39.6H44.4917C44.9451 39.6 45.3584 39.4133 45.7317 39.04C46.1051 38.64 46.1451 38.08 45.8517 37.36ZM67.2902 16.12V40H61.4902V16.12H67.2902ZM76.0102 15.96V17.56H52.8102V15.96H76.0102ZM76.0102 17.44V21.68H75.5702V21.32C75.5968 20.1733 75.2768 19.2667 74.6102 18.6C73.9702 17.9333 73.0768 17.5867 71.9302 17.56V17.44H76.0102ZM76.0102 15.36V16.36L71.7702 15.96C72.2768 15.96 72.8235 15.9333 73.4102 15.88C73.9968 15.8 74.5302 15.72 75.0102 15.64C75.4902 15.5333 75.8235 15.44 76.0102 15.36ZM61.5702 37.48V40H58.8902V39.6C58.8902 39.6 58.9568 39.6 59.0902 39.6C59.2502 39.6 59.3302 39.6 59.3302 39.6C59.9168 39.6 60.4102 39.4 60.8102 39C61.2368 38.5733 61.4635 38.0667 61.4902 37.48H61.5702ZM67.1702 37.48H67.2902C67.2902 38.0667 67.5035 38.5733 67.9302 39C68.3568 39.4 68.8768 39.6 69.4902 39.6C69.4902 39.6 69.5568 39.6 69.6902 39.6C69.8502 39.6 69.9302 39.6 69.9302 39.6V40H67.1702V37.48ZM56.8902 17.44V17.56C55.7168 17.5867 54.8102 17.9333 54.1702 18.6C53.5568 19.2667 53.2502 20.1733 53.2502 21.32V21.68H52.8102V17.44H56.8902ZM52.8102 15.36C53.0502 15.4133 53.3968 15.4933 53.8502 15.6C54.3302 15.7067 54.8502 15.8 55.4102 15.88C55.9968 15.9333 56.5302 15.96 57.0102 15.96L52.8102 16.36V15.36ZM101.364 29.96L101.804 36C101.297 36.8533 100.591 37.6267 99.6839 38.32C98.7772 38.9867 97.6706 39.52 96.3639 39.92C95.0572 40.32 93.5372 40.52 91.8039 40.52C88.8172 40.4933 86.2439 39.9867 84.0839 39C81.9239 38.0133 80.2572 36.6 79.0839 34.76C77.9372 32.8933 77.3639 30.6267 77.3639 27.96C77.3639 25.3467 77.9372 23.12 79.0839 21.28C80.2306 19.4133 81.8839 17.9867 84.0439 17C86.2039 15.9867 88.7906 15.48 91.8039 15.48C93.6172 15.48 95.2972 15.6533 96.8439 16C98.4172 16.3467 99.7239 16.7867 100.764 17.32L100.804 23.68H100.484C99.8172 21.2267 98.7639 19.5067 97.3239 18.52C95.8839 17.5333 94.1772 17.04 92.2039 17.04C90.2572 17.04 88.6306 17.4933 87.3239 18.4C86.0439 19.3067 85.0706 20.5733 84.4039 22.2C83.7639 23.8267 83.4439 25.7333 83.4439 27.92C83.4439 30.1333 83.7639 32.0533 84.4039 33.68C85.0706 35.3067 86.0306 36.5733 87.2839 37.48C88.5372 38.3867 90.0439 38.8667 91.8039 38.92C93.6972 38.92 95.2572 38.6267 96.4839 38.04C97.7372 37.4533 98.7239 36.5067 99.4439 35.2C100.191 33.8933 100.724 32.1467 101.044 29.96H101.364ZM129.349 16V40H123.629V16H129.349ZM113.069 16V40H107.309V16H113.069ZM123.949 27.24V28.84H112.709V27.24H123.949ZM107.429 37.48V40H104.669V39.6C104.669 39.6 104.735 39.6 104.869 39.6C105.029 39.6 105.122 39.6 105.149 39.6C105.735 39.6 106.242 39.4 106.669 39C107.095 38.5733 107.309 38.0667 107.309 37.48H107.429ZM112.989 37.48H113.069C113.095 38.0667 113.322 38.5733 113.749 39C114.175 39.4 114.682 39.6 115.269 39.6C115.269 39.6 115.335 39.6 115.469 39.6C115.629 39.6 115.709 39.6 115.709 39.6V40H112.989V37.48ZM112.989 18.52V16H115.709V16.4C115.709 16.4 115.629 16.4 115.469 16.4C115.335 16.4 115.269 16.4 115.269 16.4C114.682 16.4 114.175 16.6 113.749 17C113.322 17.4 113.095 17.9067 113.069 18.52H112.989ZM107.429 18.52H107.309C107.309 17.9067 107.095 17.4 106.669 17C106.242 16.6 105.735 16.4 105.149 16.4C105.122 16.4 105.029 16.4 104.869 16.4C104.735 16.4 104.669 16.4 104.669 16.4V16H107.429V18.52ZM123.709 37.48V40H120.989V39.6C120.989 39.6 121.055 39.6 121.189 39.6C121.349 39.6 121.429 39.6 121.429 39.6C122.015 39.6 122.522 39.4 122.949 39C123.375 38.5733 123.589 38.0667 123.589 37.48H123.709ZM129.229 37.48H129.349C129.375 38.0667 129.589 38.5733 129.989 39C130.415 39.4 130.935 39.6 131.549 39.6C131.549 39.6 131.615 39.6 131.749 39.6C131.909 39.6 131.989 39.6 131.989 39.6V40H129.229V37.48ZM129.269 18.52V16H132.029V16.4C132.029 16.4 131.949 16.4 131.789 16.4C131.629 16.4 131.549 16.4 131.549 16.4C130.935 16.4 130.415 16.6 129.989 17C129.589 17.4 129.389 17.9067 129.389 18.52H129.269ZM123.709 18.52H123.589C123.589 17.9067 123.375 17.4 122.949 17C122.522 16.6 122.015 16.4 121.429 16.4C121.429 16.4 121.349 16.4 121.189 16.4C121.055 16.4 120.989 16.4 120.989 16.4V16H123.709V18.52ZM142.913 16V40H137.153V16H142.913ZM152.273 38.4L153.193 40H142.833V38.4H152.273ZM150.913 27.32V28.92H142.833V27.32H150.913ZM152.713 16V17.6H142.833V16H152.713ZM154.833 32.64L153.313 40H146.393L147.633 38.4C148.78 38.4 149.793 38.1733 150.673 37.72C151.58 37.24 152.353 36.5733 152.993 35.72C153.633 34.84 154.127 33.8133 154.473 32.64H154.833ZM150.913 28.84V32.36H150.513V32.04C150.513 31.16 150.233 30.4267 149.673 29.84C149.14 29.2533 148.407 28.9467 147.473 28.92V28.84H150.913ZM150.913 23.88V27.4H147.473V27.32C148.407 27.2933 149.14 26.9867 149.673 26.4C150.233 25.7867 150.513 25.04 150.513 24.16V23.88H150.913ZM152.713 17.52V21.76H152.313V21.4C152.313 20.2267 151.993 19.3067 151.353 18.64C150.74 17.9733 149.847 17.6267 148.673 17.6V17.52H152.713ZM152.713 15.4V16.36L148.513 16C149.287 16 150.1 15.9333 150.953 15.8C151.807 15.64 152.393 15.5067 152.713 15.4ZM137.233 37.48L137.433 40H134.473V39.6C134.473 39.6 134.553 39.6 134.713 39.6C134.873 39.6 134.967 39.6 134.993 39.6C135.58 39.6 136.073 39.4 136.473 39C136.9 38.5733 137.127 38.0667 137.153 37.48H137.233ZM137.233 18.52H137.153C137.127 17.9067 136.9 17.4 136.473 17C136.073 16.6 135.58 16.4 134.993 16.4C134.967 16.4 134.873 16.4 134.713 16.4C134.553 16.4 134.473 16.4 134.473 16.4V16H137.433L137.233 18.52ZM165.335 16V40H159.575V16H165.335ZM174.655 38.4L175.615 40H165.255V38.4H174.655ZM177.295 32.64L175.735 40H168.815L170.055 38.4C171.202 38.4 172.215 38.1733 173.095 37.72C174.002 37.24 174.775 36.5733 175.415 35.72C176.055 34.84 176.548 33.8133 176.895 32.64H177.295ZM159.655 37.48L159.855 40H156.895V39.6C156.895 39.6 156.975 39.6 157.135 39.6C157.295 39.6 157.388 39.6 157.415 39.6C158.002 39.6 158.495 39.4 158.895 39C159.322 38.5733 159.548 38.0667 159.575 37.48H159.655ZM165.255 18.52V16H168.015V16.4C167.988 16.4 167.895 16.4 167.735 16.4C167.602 16.4 167.535 16.4 167.535 16.4C166.948 16.4 166.442 16.6 166.015 17C165.588 17.4 165.362 17.9067 165.335 18.52H165.255ZM159.655 18.52H159.575C159.548 17.9067 159.322 17.4 158.895 17C158.468 16.6 157.962 16.4 157.375 16.4C157.348 16.4 157.255 16.4 157.095 16.4C156.962 16.4 156.895 16.4 156.895 16.4V16H159.655V18.52Z" fill="white"/>
<rect x="1" y="1" width="182" height="54" stroke="#FFFCFC" stroke-width="2"/>
</svg>
