<svg width="40" height="40" viewBox="0 0 40 40" fill="none" xmlns="http://www.w3.org/2000/svg">
<g clip-path="url(#clip0_1_20)">
<path d="M18.4141 0.117176C16.6797 0.406239 15.2188 1.14061 13.9609 2.33593C12.1484 4.06249 11.2422 6.30468 11.3516 8.78124C11.5625 13.625 15.8125 17.3125 20.5859 16.7969C22.5938 16.5859 24.2813 15.7812 25.6953 14.3672C29.6797 10.3828 28.6797 3.68749 23.7109 1.0078C22.1328 0.156239 20.1641 -0.179699 18.4141 0.117176ZM21.5859 2.06249C22.75 2.40624 23.6563 2.95311 24.5156 3.83593C26.4141 5.76561 26.9063 8.77343 25.7422 11.2422C23.8906 15.1484 18.9688 16.2812 15.5703 13.5859C14.5859 12.8125 13.7188 11.4922 13.3594 10.2344C12.9844 8.92968 13.0781 7.24999 13.6016 5.95311C14.4531 3.81249 16.4688 2.21874 18.7891 1.85155C18.9219 1.82811 19.4453 1.8203 19.9609 1.83593C20.6953 1.85155 21.0469 1.90624 21.5859 2.06249Z" fill="#FFFCFC"/>
<path d="M18.5547 19.8984C15.3203 20.2812 12.8437 21.25 10.4297 23.0781C9.62499 23.6797 8.13281 25.1719 7.53124 25.9766C6.22656 27.6953 5.30468 29.5859 4.79687 31.6016C4.39843 33.1562 4.36718 33.4844 4.32031 36.4531C4.27343 39.6172 4.28124 39.6719 4.80468 39.8906C5.20312 40.0547 34.7187 40.0547 35.1172 39.8906C35.6406 39.6719 35.6484 39.6172 35.6016 36.4141C35.5625 33.375 35.5234 33.0391 35.1094 31.4922C34.3437 28.6797 32.9062 26.2344 30.8516 24.2578C28.375 21.875 25.3359 20.4141 21.9297 19.9609C21.1094 19.8594 19.2031 19.8203 18.5547 19.8984ZM22.2891 21.7969C27.7266 22.7266 32.0781 26.7578 33.4297 32.0938C33.7344 33.2969 33.8281 34.2734 33.8281 36.2812V38.2031H19.9531H6.07812L6.11718 35.9219C6.14843 33.8359 6.17187 33.5547 6.35156 32.7109C7.16406 29.0078 9.24218 25.9375 12.3359 23.875C14.1172 22.6875 16.3984 21.8828 18.6562 21.6406C19.5937 21.5469 21.2422 21.6172 22.2891 21.7969Z" fill="#FFFCFC"/>
</g>
<defs>
<clipPath id="clip0_1_20">
<rect width="40" height="40" fill="white"/>
</clipPath>
</defs>
</svg>
